<?xml version="1.0" encoding="UTF-8" standalone="no"?>
<svg
   xmlns:dc="http://purl.org/dc/elements/1.1/"
   xmlns:cc="http://creativecommons.org/ns#"
   xmlns:rdf="http://www.w3.org/1999/02/22-rdf-syntax-ns#"
   xmlns:svg="http://www.w3.org/2000/svg"
   xmlns="http://www.w3.org/2000/svg"
   xmlns:sodipodi="http://sodipodi.sourceforge.net/DTD/sodipodi-0.dtd"
   xmlns:inkscape="http://www.inkscape.org/namespaces/inkscape"
   version="1.1"
   id="svg2"
   viewBox="0 0 744.09448819 1052.3622047"
   height="297mm"
   width="210mm"
   inkscape:version="0.91 r13725"
   sodipodi:docname="KeystoneLogo.svg">
  <sodipodi:namedview
     pagecolor="#ffffff"
     bordercolor="#666666"
     borderopacity="1"
     objecttolerance="10"
     gridtolerance="10"
     guidetolerance="10"
     inkscape:pageopacity="0"
     inkscape:pageshadow="2"
     inkscape:window-width="1146"
     inkscape:window-height="793"
     id="namedview3512"
     showgrid="false"
     inkscape:zoom="0.89702955"
     inkscape:cx="432.48742"
     inkscape:cy="878.93263"
     inkscape:window-x="0"
     inkscape:window-y="0"
     inkscape:window-maximized="0"
     inkscape:current-layer="svg2" />
  <defs
     id="defs4" />
  <metadata
     id="metadata7">
    <rdf:RDF>
      <cc:Work
         rdf:about="">
        <dc:format>image/svg+xml</dc:format>
        <dc:type
           rdf:resource="http://purl.org/dc/dcmitype/StillImage" />
        <dc:title />
      </cc:Work>
    </rdf:RDF>
  </metadata>
  <g
     id="g13790"
     transform="matrix(1.282085,0,0,1.282085,-166.47625,-424.30103)">
    <g
       id="g13792">
      <path
         style="fill:#949490;fill-opacity:1;fill-rule:evenodd;stroke:#000000;stroke-width:0.60000002;stroke-linecap:butt;stroke-linejoin:miter;stroke-miterlimit:4;stroke-dasharray:none;stroke-opacity:1"
         d="m 307.84399,382.37853 30.05204,15.65736 -7.82869,6.56599 8.08123,3.91434 -25.75889,26.76905 -19.57171,-10.35407 5.68211,-36.23922 8.58629,4.41942 0.75762,-11.11168"
         id="path13794"
         inkscape:connector-curvature="0" />
      <g
         id="g13796">
        <g
           style="stroke-width:0.38;stroke-miterlimit:4;stroke-dasharray:none"
           id="g13798"
           transform="translate(1.1160714,-3.5267857)">
          <path
             id="path13800"
             d="m 315.6812,410.94456 c 0.031,1.92766 -1.4052,2.72621 -3.15429,3.93551 -0.81845,0.56588 -2.65936,1.50716 -3.29527,1.00857 -0.80034,-0.62755 -0.75883,-3.75359 -0.77611,-4.82778 -0.031,-1.92766 1.56136,-3.51637 3.55667,-3.54848 1.99531,-0.0321 3.63798,1.50453 3.669,3.4322 z"
             style="fill:#303131;fill-opacity:1;stroke:none;stroke-width:0.38;stroke-miterlimit:4;stroke-dasharray:none;stroke-opacity:1"
             inkscape:connector-curvature="0" />
          <path
             id="path13802"
             d="m 308.90097,413.38291 -5.67587,5.92485 7.7733,3.71893 0.87609,-7.84939"
             style="fill:#303131;fill-opacity:1;fill-rule:evenodd;stroke:none;stroke-width:0.38;stroke-linecap:butt;stroke-linejoin:miter;stroke-miterlimit:4;stroke-dasharray:none;stroke-opacity:1"
             inkscape:connector-curvature="0" />
        </g>
      </g>
    </g>
    <g
       id="g13804">
      <path
         id="path13806"
         d="m 338.68641,369.0107 c -0.30073,8.48666 -1.49021,17.22675 -7.84277,25.05443"
         style="fill:none;fill-rule:evenodd;stroke:#000000;stroke-width:0.60000002;stroke-linecap:butt;stroke-linejoin:miter;stroke-miterlimit:4;stroke-dasharray:none;stroke-opacity:1"
         inkscape:connector-curvature="0" />
      <path
         id="path13808"
         d="m 322.84715,378.77465 c 0.24701,3.91833 0.15281,7.58919 -0.63555,11.17463"
         style="fill:none;fill-rule:evenodd;stroke:#000000;stroke-width:0.60000002;stroke-linecap:butt;stroke-linejoin:miter;stroke-miterlimit:4;stroke-dasharray:none;stroke-opacity:1"
         inkscape:connector-curvature="0" />
      <path
         style="fill:none;fill-rule:evenodd;stroke:#000000;stroke-width:0.60000002;stroke-linecap:butt;stroke-linejoin:miter;stroke-miterlimit:4;stroke-dasharray:none;stroke-opacity:1"
         d="m 310.34929,375.94649 c 0.43687,2.64245 0.50691,5.1436 -0.14833,7.6411"
         id="path13810"
         inkscape:connector-curvature="0" />
      <g
         style="stroke-width:0.38;stroke-miterlimit:4;stroke-dasharray:none"
         id="g13812">
        <g
           style="stroke-width:0.38;stroke-miterlimit:4;stroke-dasharray:none"
           id="g13814">
          <path
             style="fill:#f6a035;fill-opacity:1;fill-rule:evenodd;stroke:none;stroke-width:0.38;stroke-linecap:butt;stroke-linejoin:miter;stroke-miterlimit:4;stroke-dasharray:none;stroke-opacity:1"
             d="m 350.14886,352.26335 c 0,4.80525 -2.41182,9.36364 -5.22374,12.27062 -2.31104,2.38917 -4.81373,4.84359 -8.10239,4.84359 -3.38174,-1e-5 -5.4563,-1.90598 -7.79186,-4.41736 -2.69925,-2.90245 -5.66054,-8.25592 -5.66054,-12.94939 0,-4.48284 1.4233,-8.02597 3.91429,-10.90925 2.37367,-2.74748 5.85471,-4.68972 9.41184,-4.68972 3.37543,0 7.08629,1.90029 9.42028,4.40332 2.70684,2.90288 4.03212,6.74714 4.03212,11.44819 z"
             id="path13816"
             inkscape:connector-curvature="0" />
          <g
             style="stroke-width:0.38;stroke-miterlimit:4;stroke-dasharray:none"
             id="g13818">
            <path
               style="fill:#f6a035;fill-opacity:1;fill-rule:evenodd;stroke:none;stroke-width:0.38;stroke-linecap:butt;stroke-linejoin:miter;stroke-miterlimit:4;stroke-dasharray:none;stroke-opacity:1"
               d="m 336.38184,369.41769 0.11867,0.57491 -0.29668,0.73171 0,0.31358 3.14476,0.0523 -0.11867,-0.62719 -0.53402,-0.8885 z"
               id="path13820"
               inkscape:connector-curvature="0" />
            <ellipse
               style="fill:#000000;fill-opacity:1;stroke-width:0.38;stroke-miterlimit:4;stroke-dasharray:none"
               id="ellipse13822"
               cx="337.70667"
               cy="369.76245"
               rx="1.3889598"
               ry="0.56821084" />
          </g>
        </g>
        <g
           style="stroke-width:0.38;stroke-miterlimit:4;stroke-dasharray:none"
           id="g13824">
          <path
             id="path13826"
             d="m 321.48578,359.20815 c 0,4.80525 -2.41182,9.36364 -5.22374,12.27062 -2.31104,2.38917 -4.81373,4.84359 -8.10239,4.84359 -3.38174,-1e-5 -5.4563,-1.90598 -7.79186,-4.41736 -2.69925,-2.90245 -5.66054,-8.25592 -5.66054,-12.94939 0,-4.48284 1.4233,-8.02597 3.91429,-10.90925 2.37367,-2.74748 5.85471,-4.68972 9.41184,-4.68972 3.37543,0 7.08629,1.90029 9.42028,4.40332 2.70684,2.90288 4.03212,6.74714 4.03212,11.44819 z"
             style="fill:#d63c2b;fill-opacity:1;fill-rule:evenodd;stroke:none;stroke-width:0.38;stroke-linecap:butt;stroke-linejoin:miter;stroke-miterlimit:4;stroke-dasharray:none;stroke-opacity:1"
             inkscape:connector-curvature="0" />
          <g
             style="stroke-width:0.38;stroke-miterlimit:4;stroke-dasharray:none"
             transform="translate(0.25253814,-0.31567267)"
             id="g13828">
            <path
               style="fill:#d63c2b;fill-opacity:1;fill-rule:evenodd;stroke:none;stroke-width:0.38;stroke-linecap:butt;stroke-linejoin:miter;stroke-miterlimit:4;stroke-dasharray:none;stroke-opacity:1"
               d="m 307.65563,376.55189 0.11867,0.57491 -0.29668,0.73171 0,0.31358 3.14476,0.0523 -0.11867,-0.62719 -0.53402,-0.8885 z"
               id="path13830"
               inkscape:connector-curvature="0" />
            <ellipse
               style="fill:#000000;fill-opacity:1;stroke-width:0.38;stroke-miterlimit:4;stroke-dasharray:none"
               id="ellipse13832"
               cx="308.98044"
               cy="376.89667"
               rx="1.3889598"
               ry="0.56821084" />
          </g>
        </g>
        <g
           style="stroke-width:0.38;stroke-miterlimit:4;stroke-dasharray:none"
           id="g13834">
          <path
             id="path13836"
             d="m 334.36522,361.8598 c 0,4.80525 -2.41182,9.36364 -5.22374,12.27062 -2.31104,2.38917 -4.81373,4.84359 -8.10239,4.84359 -3.38174,-1e-5 -5.4563,-1.90598 -7.79186,-4.41736 -2.69925,-2.90245 -5.66054,-8.25592 -5.66054,-12.94939 0,-4.48284 1.4233,-8.02597 3.91429,-10.90925 2.37367,-2.74748 5.85471,-4.68972 9.41184,-4.68972 3.37543,0 7.08629,1.90029 9.42028,4.40332 2.70684,2.90288 4.03212,6.74714 4.03212,11.44819 z"
             style="fill:#3ca9d7;fill-opacity:1;fill-rule:evenodd;stroke:none;stroke-width:0.38;stroke-linecap:butt;stroke-linejoin:miter;stroke-miterlimit:4;stroke-dasharray:none;stroke-opacity:1"
             inkscape:connector-curvature="0" />
          <g
             style="stroke-width:0.38;stroke-miterlimit:4;stroke-dasharray:none"
             transform="translate(-0.12626907,0)"
             id="g13838">
            <path
               id="path13840"
               d="m 320.34567,379.01414 0.11867,0.57491 -0.29668,0.73171 0,0.31358 3.14476,0.0523 -0.11867,-0.62719 -0.53402,-0.8885 z"
               style="fill:#3ca9d7;fill-opacity:1;fill-rule:evenodd;stroke:none;stroke-width:0.38;stroke-linecap:butt;stroke-linejoin:miter;stroke-miterlimit:4;stroke-dasharray:none;stroke-opacity:1"
               inkscape:connector-curvature="0" />
            <ellipse
               ry="0.56821084"
               rx="1.3889598"
               cy="379.35889"
               cx="321.6705"
               id="ellipse13842"
               style="fill:#000000;fill-opacity:1;stroke-width:0.38;stroke-miterlimit:4;stroke-dasharray:none" />
          </g>
        </g>
      </g>
    </g>
  </g>
  <text
     transform="scale(0.77843499,1.2846288)"
     id="text13844"
     y="93.954514"
     x="3.4071944"
     style="font-style:normal;font-variant:normal;font-weight:bold;font-stretch:normal;font-size:48.07818604px;line-height:125%;font-family:sans-serif;-inkscape-font-specification:'sans-serif, Bold';text-align:start;letter-spacing:0px;word-spacing:0px;writing-mode:lr-tb;text-anchor:start;fill:#000000;fill-opacity:1;stroke:none;stroke-width:0.34449676;stroke-linecap:butt;stroke-linejoin:miter;stroke-miterlimit:4;stroke-dasharray:none;stroke-opacity:1"
     xml:space="preserve"
     sodipodi:linespacing="125%"><tspan
       style="font-style:normal;font-variant:normal;font-weight:bold;font-stretch:normal;font-size:48.07818604px;line-height:125%;font-family:sans-serif;-inkscape-font-specification:'sans-serif, Bold';text-align:start;writing-mode:lr-tb;text-anchor:start;fill:#000000;fill-opacity:1;stroke:none;stroke-width:0.34449676;stroke-miterlimit:4;stroke-dasharray:none;stroke-opacity:1"
       y="93.954514"
       x="3.4071944"
       id="tspan13846">Keystone</tspan></text>
</svg>
